<svg width="12" height="12" viewBox="0 0 12 12" fill="none" xmlns="http://www.w3.org/2000/svg">
<path d="M9.56248 3V7.875C9.56248 8.02418 9.50322 8.16726 9.39773 8.27275C9.29224 8.37824 9.14916 8.4375 8.99998 8.4375C8.8508 8.4375 8.70772 8.37824 8.60223 8.27275C8.49674 8.16726 8.43748 8.02418 8.43748 7.875V4.35938L3.39795 9.39797C3.29228 9.50364 3.14895 9.56301 2.99951 9.56301C2.85007 9.56301 2.70675 9.50364 2.60107 9.39797C2.4954 9.2923 2.43604 9.14898 2.43604 8.99953C2.43604 8.85009 2.4954 8.70677 2.60107 8.60109L7.64061 3.5625H4.12498C3.9758 3.5625 3.83272 3.50324 3.72723 3.39775C3.62174 3.29226 3.56248 3.14918 3.56248 3C3.56248 2.85082 3.62174 2.70774 3.72723 2.60225C3.83272 2.49676 3.9758 2.4375 4.12498 2.4375H8.99998C9.14916 2.4375 9.29224 2.49676 9.39773 2.60225C9.50322 2.70774 9.56248 2.85082 9.56248 3Z" fill="#848180"/>
</svg>
