<svg width="24" height="24" viewBox="0 0 24 24" fill="none" xmlns="http://www.w3.org/2000/svg">
<path d="M15.6384 18.6484C15.708 18.7181 15.7633 18.8008 15.801 18.8918C15.8387 18.9829 15.8581 19.0805 15.8581 19.179C15.8581 19.2776 15.8387 19.3751 15.801 19.4662C15.7633 19.5572 15.708 19.6399 15.6384 19.7096C15.5687 19.7793 15.4859 19.8346 15.3949 19.8723C15.3039 19.91 15.2063 19.9294 15.1077 19.9294C15.0092 19.9294 14.9116 19.91 14.8206 19.8723C14.7295 19.8346 14.6468 19.7793 14.5771 19.7096L7.0771 12.2096C7.00737 12.14 6.95205 12.0573 6.91431 11.9662C6.87657 11.8752 6.85714 11.7776 6.85714 11.679C6.85714 11.5804 6.87657 11.4828 6.91431 11.3918C6.95205 11.3008 7.00737 11.218 7.0771 11.1484L14.5771 3.64838C14.7178 3.50765 14.9087 3.42859 15.1077 3.42859C15.3068 3.42859 15.4976 3.50765 15.6384 3.64838C15.7791 3.78911 15.8581 3.97998 15.8581 4.17901C15.8581 4.37803 15.7791 4.5689 15.6384 4.70963L8.66804 11.679L15.6384 18.6484Z" fill="#2B211D"/>
</svg>
