<svg width="24" height="24" viewBox="0 0 24 24" fill="none" xmlns="http://www.w3.org/2000/svg">
<path d="M21.7563 17.5087C22.2746 16.4338 22.5289 15.2508 22.4981 14.058C22.4673 12.8651 22.1523 11.6968 21.5793 10.6501C21.0063 9.60341 20.1918 8.70854 19.2036 8.03984C18.2153 7.37113 17.0817 6.94789 15.897 6.80527C15.5028 5.88873 14.9297 5.06006 14.2112 4.36779C13.4928 3.67551 12.6434 3.13353 11.7129 2.7736C10.7823 2.41367 9.78936 2.24302 8.79206 2.27164C7.79476 2.30026 6.81319 2.52758 5.90484 2.94028C4.99649 3.35298 4.17961 3.94277 3.50204 4.67511C2.82447 5.40745 2.29982 6.26762 1.95883 7.20525C1.61784 8.14288 1.46735 9.13912 1.51619 10.1356C1.56502 11.1321 1.81219 12.1089 2.24322 13.0087L1.56165 15.3253C1.48545 15.5839 1.48035 15.8582 1.5469 16.1195C1.61345 16.3808 1.74919 16.6193 1.93983 16.8099C2.13047 17.0005 2.36896 17.1363 2.63023 17.2028C2.89149 17.2694 3.16586 17.2643 3.42447 17.1881L5.74103 16.5065C6.48487 16.8639 7.28236 17.0967 8.10166 17.1956C8.4997 18.1282 9.08273 18.9704 9.8155 19.6713C10.5483 20.3723 11.4156 20.9173 12.365 21.2735C13.3144 21.6297 14.3261 21.7897 15.3391 21.7438C16.3521 21.698 17.3452 21.4471 18.2585 21.0065L20.5751 21.6881C20.8336 21.7642 21.1079 21.7693 21.369 21.7027C21.6302 21.6362 21.8686 21.5006 22.0592 21.3101C22.2498 21.1196 22.3855 20.8812 22.4522 20.6201C22.5188 20.359 22.5139 20.0848 22.4379 19.8262L21.7563 17.5087ZM5.81228 14.9531C5.74061 14.9532 5.66931 14.9633 5.6004 14.9831L2.99978 15.75L3.76572 13.1475C3.82019 12.9594 3.799 12.7576 3.70665 12.585C3.0282 11.3161 2.82829 9.84573 3.14337 8.44182C3.45846 7.03792 4.26755 5.79398 5.42317 4.93678C6.57878 4.07958 8.00395 3.66619 9.43889 3.77198C10.8738 3.87778 12.223 4.4957 13.2404 5.5131C14.2578 6.53051 14.8757 7.87965 14.9815 9.31459C15.0873 10.7495 14.6739 12.1747 13.8167 13.3303C12.9595 14.4859 11.7156 15.295 10.3117 15.6101C8.90775 15.9252 7.43736 15.7253 6.16853 15.0468C6.05942 14.9864 5.93698 14.9542 5.81228 14.9531ZM20.2301 17.6465L20.9998 20.25L18.3973 19.484C18.2093 19.4295 18.0074 19.4507 17.8348 19.5431C16.4537 20.2805 14.8392 20.4494 13.3354 20.0137C11.8315 19.578 10.5574 18.5721 9.78447 17.2106C10.8114 17.1034 11.8051 16.7852 12.7032 16.2758C13.6013 15.7665 14.3845 15.077 15.0036 14.2507C15.6227 13.4244 16.0643 12.4791 16.3008 11.4741C16.5373 10.469 16.5636 9.42593 16.3779 8.41027C17.2726 8.62117 18.107 9.03485 18.8165 9.61936C19.5259 10.2039 20.0916 10.9436 20.4699 11.7814C20.8481 12.6193 21.0288 13.5328 20.998 14.4516C20.9671 15.3703 20.7256 16.2697 20.292 17.0803C20.1986 17.2539 20.1774 17.4573 20.2329 17.6465H20.2301Z" fill="#2B211D"/>
</svg>
