<svg width="14" height="14" viewBox="0 0 14 14" fill="none" xmlns="http://www.w3.org/2000/svg">
<path d="M12.5191 2.71748C12.4667 2.67665 12.4056 2.64828 12.3406 2.63454C12.2756 2.62081 12.2084 2.62205 12.1439 2.63819L8.80086 3.47381L5.44578 1.796C5.3523 1.74937 5.24522 1.73773 5.14391 1.76319L1.64391 2.63819C1.54926 2.66184 1.46523 2.71646 1.40519 2.79335C1.34514 2.87024 1.31251 2.965 1.3125 3.06256V10.9376C1.31251 11.004 1.32767 11.0696 1.35683 11.1294C1.38599 11.1891 1.42838 11.2414 1.48078 11.2824C1.53318 11.3233 1.59421 11.3517 1.65925 11.3655C1.72428 11.3793 1.7916 11.3781 1.85609 11.3619L5.19914 10.5263L8.55422 12.2041C8.61513 12.2342 8.68209 12.2499 8.75 12.2501C8.78577 12.25 8.8214 12.2456 8.85609 12.2369L12.3561 11.3619C12.4507 11.3383 12.5348 11.2837 12.5948 11.2068C12.6549 11.1299 12.6875 11.0351 12.6875 10.9376V3.06256C12.6875 2.99602 12.6724 2.93035 12.6432 2.87055C12.614 2.81076 12.5715 2.75841 12.5191 2.71748ZM5.6875 2.89522L8.3125 4.20772V11.1049L5.6875 9.7924V2.89522ZM2.1875 3.40436L4.8125 2.74811V9.72076L2.1875 10.377V3.40436ZM11.8125 10.5958L9.1875 11.252V4.27936L11.8125 3.62311V10.5958Z" fill="#848180"/>
</svg>
